<?xml version="1.0"?>
<svg fill="#29A068" width="444.8" height="444.8" xmlns="http://www.w3.org/2000/svg">
  <path transform="rotate(90 222.40000915527344,222.44999694824222) " id="svg_1" d="m352,196.7l-186.1,-185.9c-6.9,-7.2 -15.4,-10.8 -25.7,-10.8c-10.3,0 -18.8,3.6 -25.7,10.8l-21.7,21.5c-7,7 -10.6,15.6 -10.6,25.7c0,9.9 3.5,18.6 10.6,26l138.8,138.5l-138.8,138.7c-7,7 -10.6,15.6 -10.6,25.7c0,9.9 3.5,18.6 10.6,26l21.7,21.4c7,7 15.6,10.6 25.7,10.6c10.1,0 18.7,-3.5 25.7,-10.6l186.1,-185.9c7,-7.4 10.6,-16.1 10.6,-26c0,-10.1 -3.5,-18.6 -10.6,-25.7z"/>
</svg>