<?xml version="1.0"?>
<svg xmlns="http://www.w3.org/2000/svg" viewBox="0 0 448 448" width="512" height="512"><path d="M418.7 318.7c-34.6-3.2-68.4-12-100.3-26.2 -15.7-7.1-34-0.7-41.7 14.6l-21.8 43.2c-66-36.6-120.7-91.3-157.2-157.2l43.2-21.7c15.2-7.6 21.7-26 14.6-41.7C141.2 97.7 132.4 64 129.3 29.3 127.7 12.6 114.1 0 97.6 0H16C7.2 0 0 7.2 0 16c0 65.2 14.2 128 42.2 186.8 42.5 88.4 114.6 160.5 203.1 203C304.1 433.8 366.9 448 432 448c8.8 0 16-7.2 16-16v-81.6C448 333.9 435.4 320.2 418.7 318.7z" class="active-path" fill="#41C160"/></svg>
