<?xml version="1.0" encoding="utf-8"?>
<!-- Svg Vector Icons : http://www.onlinewebfonts.com/icon -->
<!DOCTYPE svg PUBLIC "-//W3C//DTD SVG 1.1//EN" "http://www.w3.org/Graphics/SVG/1.1/DTD/svg11.dtd">
<svg version="1.1" xmlns="http://www.w3.org/2000/svg" xmlns:xlink="http://www.w3.org/1999/xlink" x="0px" y="0px" viewBox="0 0 1000 1000" enable-background="new 0 0 1000 1000" xml:space="preserve" fill="#fcd82f">
<metadata> Svg Vector Icons : http://www.onlinewebfonts.com/icon </metadata>
<g><g><g id="c104_arrow"><path d="M519.4,23.8L895,389.1c0,0,45.8,43.4-4.1,43.4c-49.8,0-170.3,0-170.3,0s0,29.2,0,74.2c0,128.6,0,362.3,0,457.5c0,0,6.9,25.9-32.4,25.9c-39.2,0-358.2,0-386.4,0c-28,0-27.3-21.6-27.3-21.6c0-92.6,0-334.3,0-458.5c0-40.2,0-66.5,0-66.5s-96.6,0-157.2,0c-60.7,0-14.9-45.4-14.9-45.4s330.4-341.3,366.1-377C494.5-5.2,519.4,23.8,519.4,23.8z"/></g><g id="Capa_1_71_"></g></g><g></g><g></g><g></g><g></g><g></g><g></g><g></g><g></g><g></g><g></g><g></g><g></g><g></g><g></g><g></g></g>
</svg>